<?xml version="1.0" encoding="UTF-8"?>
<svg width="30px" height="30px" viewBox="0 0 30 30" version="1.1" xmlns="http://www.w3.org/2000/svg" xmlns:xlink="http://www.w3.org/1999/xlink">
    <!-- Generator: Sketch 45.2 (43514) - http://www.bohemiancoding.com/sketch -->
    <title>Group 25</title>
    <desc>Created with Sketch.</desc>
    <defs></defs>
    <g id="Page-1" stroke="none" stroke-width="1" fill="none" fill-rule="evenodd">
        <g id="Project_Overview-toolchain3" transform="translate(-862.000000, -726.000000)">
            <g id="Group-27" transform="translate(831.000000, 585.000000)">
                <g id="Group-22">
                    <g id="Group-25" transform="translate(31.000000, 141.000000)">
                        <g id="Group-23">
                            <g id="Group-21">
                                <path d="M11.2745886,11.0261866 C11.2745886,11.0261866 11.900459,9.11426553 14.4001705,9.00568078 C16.8998819,8.89709603 18.2387168,10.1808845 18.2387168,10.1808845 L18.2387168,27.6342919 C18.2387168,27.6342919 16.7961986,28.9901762 15.2707336,28.9901762 C13.7452687,28.9901762 11.6810273,28.3650599 11.1912649,27.1555464 C10.7015024,25.9460329 11.2745886,11.0261866 11.2745886,11.0261866 Z" id="Path-7" stroke="#979797" fill="#FDD500"></path>
                                <path d="M21.7736103,3.23008378 C21.7736103,3.23008378 22.3994807,1.3181627 24.8991922,1.20957795 C27.3989036,1.1009932 28.7377385,2.38478166 28.7377385,2.38478166 L28.7377385,27.6342919 C28.7377385,27.6342919 27.2952202,28.9901762 25.7697553,28.9901762 C24.2442904,28.9901762 22.180049,28.3650599 21.6902866,27.1555464 C21.2005241,25.9460329 21.7736103,3.23008378 21.7736103,3.23008378 Z" id="Path-7-Copy-2" stroke="#979797" fill="#FDD500"></path>
                                <g id="growth" transform="translate(20.998043, 0.461495)"></g>
                                <path d="M0.775566903,16.1854812 C0.775566903,16.1854812 1.40143734,14.2735601 3.90114878,14.1649753 C6.40086022,14.0563906 7.73969511,15.340179 7.73969511,15.340179 L7.73969511,27.6342919 C7.73969511,27.6342919 6.29717687,28.9901762 4.77171193,28.9901762 C3.246247,28.9901762 1.18200566,28.3650599 0.692243188,27.1555464 C0.202480721,25.9460329 0.775566903,16.1854812 0.775566903,16.1854812 Z" id="Path-7-Copy" stroke="#979797" fill="#FDD500"></path>
                                <path d="M29.0286645,4.15345913 L29.0286645,27.2620253 C29.0286645,27.2620253 25.7283718,30.0437193 25.7283718,28.8543177 C25.7283718,27.6649161 25.7283718,5.10190023 25.7283718,5.10190023 L29.0286645,4.15345913 Z" id="Path-8" fill="#EFC100"></path>
                                <path d="M18.1835212,12.3450035 L18.1835212,27.253461 C18.1835212,27.253461 14.8832286,30.035155 14.8832286,28.8457534 C14.8832286,27.6563518 14.8832286,13.2934446 14.8832286,13.2934446 L18.1835212,12.3450035 Z" id="Path-8-Copy" fill="#EFC100"></path>
                                <path d="M7.7998734,17.4014906 L7.7998734,27.253461 C7.7998734,27.253461 4.49958073,30.035155 4.49958073,28.8457534 C4.49958073,27.6563518 4.49958073,18.3499317 4.49958073,18.3499317 L7.7998734,17.4014906 Z" id="Path-8-Copy-2" fill="#EFC100"></path>
                                <path d="M4.21938705,13.7100154 C1.85336576,13.7100154 0,14.8679398 0,16.3464554 L0,26.8922155 C0,28.370731 1.85336576,29.5286555 4.21938705,29.5286555 C6.58540834,29.5286555 8.43877411,28.370731 8.43877411,26.8922155 L8.43877411,16.3464554 C8.43877411,14.8679398 6.58540834,13.7100154 4.21938705,13.7100154 Z M4.21938705,28.4740795 C2.35441798,28.4740795 1.05484676,27.6404371 1.05484676,26.8922155 L1.05484676,26.0132264 C1.82224778,26.5542239 2.94460474,26.8922155 4.21938705,26.8922155 C5.49416937,26.8922155 6.61652632,26.5542239 7.38392734,26.0132264 L7.38392734,26.8922155 C7.38392734,27.6404371 6.08435613,28.4740795 4.21938705,28.4740795 Z M4.21938705,25.8376395 C2.35441798,25.8376395 1.05484676,25.0039971 1.05484676,24.2557754 L1.05484676,23.3767863 C1.82224778,23.9177838 2.94460474,24.2557754 4.21938705,24.2557754 C5.49416937,24.2557754 6.61652632,23.9177838 7.38392734,23.3767863 L7.38392734,24.2557754 C7.38392734,25.0039971 6.08435613,25.8376395 4.21938705,25.8376395 Z M4.21938705,23.2011994 C2.35441798,23.2011994 1.05484676,22.3675571 1.05484676,21.6193354 L1.05484676,20.7403463 C1.82224778,21.2813438 2.94460474,21.6193354 4.21938705,21.6193354 C5.49416937,21.6193354 6.61652632,21.2813438 7.38392734,20.7403463 L7.38392734,21.6193354 C7.38392734,22.3675571 6.08435613,23.2011994 4.21938705,23.2011994 Z M4.21938705,20.5647594 C2.35441798,20.5647594 1.05484676,19.7311171 1.05484676,18.9828954 L1.05484676,18.1039063 C1.82224778,18.6449038 2.94460474,18.9828954 4.21938705,18.9828954 C5.49416937,18.9828954 6.61652632,18.6449038 7.38392734,18.1039063 L7.38392734,18.9828954 C7.38392734,19.7311171 6.08435613,20.5647594 4.21938705,20.5647594 Z M4.21938705,17.9283194 C2.35441798,17.9283194 1.05484676,17.0946771 1.05484676,16.3464554 C1.05484676,15.5982337 2.35441798,14.7645914 4.21938705,14.7645914 C6.08435613,14.7645914 7.38392734,15.5982337 7.38392734,16.3464554 C7.38392734,17.0946771 6.08435613,17.9283194 4.21938705,17.9283194 Z" id="Shape" fill="#4178BE" fill-rule="nonzero"></path>
                                <path d="M25.3163223,0.527815291 C22.950301,0.527815291 21.0969353,1.68573975 21.0969353,3.16425531 L21.0969353,26.8922155 C21.0969353,28.370731 22.950301,29.5286555 25.3163223,29.5286555 C27.6823436,29.5286555 29.5357094,28.370731 29.5357094,26.8922155 L29.5357094,3.16425531 C29.5357094,1.68573975 27.6823436,0.527815291 25.3163223,0.527815291 Z M25.3163223,1.5823913 C27.1812914,1.5823913 28.4808626,2.41603363 28.4808626,3.16425531 C28.4808626,3.91247699 27.1812914,4.74611932 25.3163223,4.74611932 C23.4513532,4.74611932 22.151782,3.91247699 22.151782,3.16425531 C22.151782,2.41603363 23.4513532,1.5823913 25.3163223,1.5823913 Z M25.3163223,28.4740795 C23.4513532,28.4740795 22.151782,27.6404371 22.151782,26.8922155 L22.151782,26.0132264 C22.9191831,26.5542239 24.04154,26.8922155 25.3163223,26.8922155 C26.5911046,26.8922155 27.7134616,26.5542239 28.4808626,26.0132264 L28.4808626,26.8922155 C28.4808626,27.6404371 27.1812914,28.4740795 25.3163223,28.4740795 Z M25.3163223,25.8376395 C23.4513532,25.8376395 22.151782,25.0039971 22.151782,24.2557754 L22.151782,23.3767863 C22.9191831,23.9177838 24.04154,24.2557754 25.3163223,24.2557754 C26.5911046,24.2557754 27.7134616,23.9177838 28.4808626,23.3767863 L28.4808626,24.2557754 C28.4808626,25.0039971 27.1812914,25.8376395 25.3163223,25.8376395 Z M25.3163223,23.2011994 C23.4513532,23.2011994 22.151782,22.3675571 22.151782,21.6193354 L22.151782,20.7403463 C22.9191831,21.2813438 24.04154,21.6193354 25.3163223,21.6193354 C26.5911046,21.6193354 27.7134616,21.2813438 28.4808626,20.7403463 L28.4808626,21.6193354 C28.4808626,22.3675571 27.1812914,23.2011994 25.3163223,23.2011994 Z M25.3163223,20.5647594 C23.4513532,20.5647594 22.151782,19.7311171 22.151782,18.9828954 L22.151782,18.1039063 C22.9191831,18.6449038 24.04154,18.9828954 25.3163223,18.9828954 C26.5911046,18.9828954 27.7134616,18.6449038 28.4808626,18.1039063 L28.4808626,18.9828954 C28.4808626,19.7311171 27.1812914,20.5647594 25.3163223,20.5647594 Z M25.3163223,17.9283194 C23.4513532,17.9283194 22.151782,17.0946771 22.151782,16.3464554 L22.151782,15.4674663 C22.9191831,16.0084638 24.04154,16.3464554 25.3163223,16.3464554 C26.5911046,16.3464554 27.7134616,16.0084638 28.4808626,15.4674663 L28.4808626,16.3464554 C28.4808626,17.0946771 27.1812914,17.9283194 25.3163223,17.9283194 Z M25.3163223,15.2918794 C23.4513532,15.2918794 22.151782,14.4582371 22.151782,13.7100154 L22.151782,12.8310263 C22.9191831,13.3720238 24.04154,13.7100154 25.3163223,13.7100154 C26.5911046,13.7100154 27.7134616,13.3720238 28.4808626,12.8310263 L28.4808626,13.7100154 C28.4808626,14.4582371 27.1812914,15.2918794 25.3163223,15.2918794 Z M25.3163223,12.6554394 C23.4513532,12.6554394 22.151782,11.821797 22.151782,11.0735754 L22.151782,10.1945863 C22.9191831,10.7355837 24.04154,11.0735754 25.3163223,11.0735754 C26.5911046,11.0735754 27.7134616,10.7355837 28.4808626,10.1945863 L28.4808626,11.0735754 C28.4808626,11.821797 27.1812914,12.6554394 25.3163223,12.6554394 Z M25.3163223,10.0189994 C23.4513532,10.0189994 22.151782,9.18535702 22.151782,8.43713534 L22.151782,7.55814624 C22.9191831,8.09914373 24.04154,8.43713534 25.3163223,8.43713534 C26.5911046,8.43713534 27.7134616,8.09914373 28.4808626,7.55814624 L28.4808626,8.43713534 C28.4808626,9.18535702 27.1812914,10.0189994 25.3163223,10.0189994 Z M25.3163223,7.38255934 C23.4513532,7.38255934 22.151782,6.548917 22.151782,5.80069533 L22.151782,4.92117894 C22.9191831,5.46217643 24.04154,5.80016804 25.3163223,5.80016804 C26.5911046,5.80016804 27.7134616,5.46217643 28.4808626,4.92117894 L28.4808626,5.80016804 C28.4808626,6.548917 27.1812914,7.38255934 25.3163223,7.38255934 Z" id="Shape" fill="#4178BE" fill-rule="nonzero"></path>
                                <path d="M19.547529,2.53822577 C19.547529,2.53822577 17.7638233,2.53309156 16.777456,3.37647303 C15.9360132,4.09593851 15.8594203,5.63123404 15.9521536,6.15090504 C16.1535918,7.27975173 18.8615822,5.56600764 18.8615822,5.56600764 L19.547529,2.53822577 Z" id="Path-9" fill="#41D6C3"></path>
                                <path d="M12.3450035,0.692243982 C12.3450035,0.692243982 10.2450375,0.686761354 9.08378208,1.58737712 C8.09314711,2.3556676 8.00297395,3.9951527 8.11214927,4.55009006 C8.34930357,5.75554354 11.5374348,3.92549984 11.5374348,3.92549984 L12.3450035,0.692243982 Z" id="Path-9-Copy" fill="#41D6C3" transform="translate(10.210587, 2.826660) rotate(-270.000000) translate(-10.210587, -2.826660) "></path>
                                <path d="M19.5552767,2.15028048 C19.4666696,2.1360437 17.381765,1.84972632 16.2087754,3.02294212 C15.2704892,3.96151477 15.2667972,5.47904964 15.3089911,6.09597661 L14.3949664,7.00976672 C14.2958108,7.10836957 14.2404313,7.24230073 14.2404313,7.38255934 L14.2404313,7.69155011 L12.6581612,6.1096861 L12.6581612,4.21883132 L12.6544692,4.21883132 C12.6771484,3.42209914 12.5743008,1.96151137 11.6354872,1.02293873 C10.3211482,-0.292117554 7.97358668,0.0305827042 7.87495851,0.0458740563 C7.64341965,0.0796204885 7.461986,0.261007562 7.42875833,0.491959707 C7.4145179,0.591089852 7.09067994,2.93699418 8.40607386,4.25152317 C9.27474017,5.11996651 10.593826,5.27340732 11.4176614,5.27340732 C11.4851716,5.27340732 11.5431881,5.27129817 11.6033144,5.26918902 L11.6033144,6.32798333 C11.6033144,6.46824194 11.6586939,6.60217309 11.7578494,6.70077595 L13.5959199,8.53837464 C11.8185031,8.84894727 10.5484676,9.85026719 10.5484676,11.0735754 L10.5484676,26.8922155 C10.5484676,28.370731 12.4018334,29.5286555 14.7678547,29.5286555 C17.133876,29.5286555 18.9872417,28.370731 18.9872417,26.8922155 L18.9872417,11.0735754 C18.9872417,9.70737214 17.4028619,8.61641326 15.2952781,8.45875415 L15.2952781,7.60085657 L16.0552952,6.84103456 C16.1628895,6.84841659 16.290526,6.85474404 16.445061,6.85474404 C17.1765973,6.85474404 18.352224,6.71764916 19.1285912,5.94200851 C20.3021082,4.76826541 20.0141351,2.68442323 20.0014769,2.59636613 C19.9677218,2.3648867 19.7862882,2.18349962 19.5552767,2.15028048 Z M9.15237794,3.50593793 C8.48255025,2.83680946 8.42136914,1.67677585 8.44193865,1.05826702 C9.06535308,1.04297567 10.2214651,1.0988682 10.890238,1.76852396 C11.5600657,2.43765244 11.6212468,3.59768605 11.6006773,4.21619487 C10.9793725,4.23412267 9.82167821,4.1755937 9.15237794,3.50593793 Z M14.7678547,28.4740795 C12.9028856,28.4740795 11.6033144,27.6404371 11.6033144,26.8922155 L11.6033144,26.0132264 C12.3707154,26.5542239 13.4930724,26.8922155 14.7678547,26.8922155 C16.042637,26.8922155 17.164994,26.5542239 17.932395,26.0132264 L17.932395,26.8922155 C17.932395,27.6404371 16.6328238,28.4740795 14.7678547,28.4740795 Z M14.7678547,25.8376395 C12.9028856,25.8376395 11.6033144,25.0039971 11.6033144,24.2557754 L11.6033144,23.3767863 C12.3707154,23.9177838 13.4930724,24.2557754 14.7678547,24.2557754 C16.042637,24.2557754 17.164994,23.9177838 17.932395,23.3767863 L17.932395,24.2557754 C17.932395,25.0039971 16.6328238,25.8376395 14.7678547,25.8376395 Z M14.7678547,23.2011994 C12.9028856,23.2011994 11.6033144,22.3675571 11.6033144,21.6193354 L11.6033144,20.7403463 C12.3707154,21.2813438 13.4930724,21.6193354 14.7678547,21.6193354 C16.042637,21.6193354 17.164994,21.2813438 17.932395,20.7403463 L17.932395,21.6193354 C17.932395,22.3675571 16.6328238,23.2011994 14.7678547,23.2011994 Z M14.7678547,20.5647594 C12.9028856,20.5647594 11.6033144,19.7311171 11.6033144,18.9828954 L11.6033144,18.1039063 C12.3707154,18.6449038 13.4930724,18.9828954 14.7678547,18.9828954 C16.042637,18.9828954 17.164994,18.6449038 17.932395,18.1039063 L17.932395,18.9828954 C17.932395,19.7311171 16.6328238,20.5647594 14.7678547,20.5647594 Z M14.7678547,17.9283194 C12.9028856,17.9283194 11.6033144,17.0946771 11.6033144,16.3464554 L11.6033144,15.4674663 C12.3707154,16.0084638 13.4930724,16.3464554 14.7678547,16.3464554 C16.042637,16.3464554 17.164994,16.0084638 17.932395,15.4674663 L17.932395,16.3464554 C17.932395,17.0946771 16.6328238,17.9283194 14.7678547,17.9283194 Z M14.7678547,15.2918794 C12.9028856,15.2918794 11.6033144,14.4582371 11.6033144,13.7100154 L11.6033144,12.8310263 C12.3707154,13.3720238 13.4930724,13.7100154 14.7678547,13.7100154 C16.042637,13.7100154 17.164994,13.3720238 17.932395,12.8310263 L17.932395,13.7100154 C17.932395,14.4582371 16.6328238,15.2918794 14.7678547,15.2918794 Z M17.932395,11.0735754 C17.932395,11.821797 16.6328238,12.6554394 14.7678547,12.6554394 C12.9028856,12.6554394 11.6033144,11.821797 11.6033144,11.0735754 C11.6033144,10.3981194 12.6634354,9.65569792 14.2404313,9.51702117 L14.2404313,11.0735754 L15.2952781,11.0735754 L15.2952781,9.51702117 C16.872274,9.65569792 17.932395,10.3981194 17.932395,11.0735754 Z M18.3828145,5.19589599 C17.8342942,5.74427551 16.8954806,5.80965922 16.3511797,5.79964075 C16.3390489,5.25706139 16.407614,4.31585231 16.9550795,3.76852736 C17.5025449,3.22120241 18.4387214,3.15898243 18.9867143,3.1647826 C18.9983176,3.70788924 18.9297526,4.64909833 18.3828145,5.19589599 Z" id="Shape" fill="#4178BE" fill-rule="nonzero"></path>
                            </g>
                        </g>
                    </g>
                </g>
            </g>
        </g>
    </g>
</svg>