<svg xmlns="http://www.w3.org/2000/svg" viewBox="0 0 100 100"><defs><style>.cls-1{fill:#f6f9fa;}.cls-2{fill:#fff;}.cls-2,.cls-5,.cls-6,.cls-7,.cls-8{stroke:#047cc0;}.cls-2,.cls-7{stroke-miterlimit:10;}.cls-2,.cls-7,.cls-8{stroke-width:1.5px;}.cls-3{fill:#e1ebf7;}.cls-4,.cls-5{fill:#e3ecec;}.cls-5,.cls-6,.cls-8{stroke-linecap:round;stroke-linejoin:round;}.cls-5,.cls-6{stroke-width:1.3px;}.cls-6{fill:#fed500;}.cls-7,.cls-8{fill:none;}</style></defs><title>portfolio_service</title><g id="Layer_2" data-name="Layer 2"><g id="Layer_1-2" data-name="Layer 1"><circle class="cls-1" cx="50" cy="50" r="50"/><rect class="cls-2" x="17.72" y="21.84" width="63.46" height="50.05" rx="4.83" ry="4.83"/><polyline class="cls-3" points="24.35 29.64 23.95 64.57 75.23 64.57"/><path class="cls-4" d="M85.7,74.38c4,3.33-15.86,9.48-35.42,9.48s-35.42-4.25-35.42-9.48c0,0-.38-3,2.06-3.92l3.65,3.07L77.1,74.78h0S81.17,70.64,85.7,74.38Z"/><path class="cls-5" d="M16.18,70.87V75.2c0,2.39,4.77,4.33,10.65,4.33s10.65-1.94,10.65-4.33V70.87"/><ellipse class="cls-6" cx="26.83" cy="70.87" rx="10.65" ry="4.33"/><path class="cls-7" d="M20.65,78.6"/><path class="cls-7" d="M33.19,74.52"/><path class="cls-7" d="M26.83,79.53"/><path class="cls-7" d="M26.83,75.2"/><path class="cls-7" d="M32.7,75.2"/><path class="cls-5" d="M16.18,66.54v4.33c0,2.39,4.77,4.33,10.65,4.33s10.65-1.94,10.65-4.33V66.54"/><ellipse class="cls-6" cx="26.83" cy="66.54" rx="10.65" ry="4.33"/><path class="cls-5" d="M39.72,75.59v4.33c0,2.39,4.77,4.33,10.65,4.33S61,82.31,61,79.92V75.59"/><ellipse class="cls-6" cx="50.38" cy="75.59" rx="10.65" ry="4.33"/><path class="cls-5" d="M39.72,71v4.33c0,2.39,4.77,4.33,10.65,4.33S61,77.75,61,75.35V71"/><ellipse class="cls-6" cx="50.38" cy="71.02" rx="10.65" ry="4.33"/><path class="cls-7" d="M56.24,75.35"/><path class="cls-5" d="M39.93,66.53v4.33c0,2.39,4.77,4.33,10.65,4.33s10.65-1.94,10.65-4.33V66.53"/><ellipse class="cls-6" cx="50.58" cy="66.53" rx="10.65" ry="4.33"/><path class="cls-7" d="M56.45,70.87"/><path class="cls-5" d="M39.93,62.21v4.33c0,2.39,4.77,4.33,10.65,4.33s10.65-1.94,10.65-4.33V62.21"/><ellipse class="cls-6" cx="50.58" cy="62.21" rx="10.65" ry="4.33"/><path class="cls-7" d="M56.45,66.55"/><path class="cls-5" d="M39.93,57.88v4.33c0,2.39,4.77,4.33,10.65,4.33s10.65-1.94,10.65-4.33V57.88"/><ellipse class="cls-6" cx="50.58" cy="57.88" rx="10.65" ry="4.33"/><path class="cls-7" d="M44.4,61.53"/><path class="cls-7" d="M44.4,65.61"/><path class="cls-5" d="M63,68.7V73c0,2.39,4.77,4.33,10.65,4.33S84.3,75.43,84.3,73V68.7"/><ellipse class="cls-6" cx="73.65" cy="68.7" rx="10.65" ry="4.33"/><path class="cls-5" d="M63,64.38v4.33C63,71.11,67.77,73,73.65,73S84.3,71.11,84.3,68.71V64.38"/><ellipse class="cls-6" cx="73.65" cy="64.38" rx="10.65" ry="4.33"/><path class="cls-7" d="M79.52,68.71"/><path class="cls-5" d="M63,60v4.33c0,2.39,4.77,4.33,10.65,4.33S84.3,66.76,84.3,64.37V60"/><ellipse class="cls-6" cx="73.65" cy="60.03" rx="10.65" ry="4.33"/><path class="cls-7" d="M79.52,64.37"/><path class="cls-5" d="M16.18,62.2v4.33c0,2.39,4.77,4.33,10.65,4.33s10.65-1.94,10.65-4.33V62.2"/><ellipse class="cls-6" cx="26.83" cy="62.2" rx="10.65" ry="4.33"/><path class="cls-6" d="M63.31,40.06A5.93,5.93,0,0,1,60,36.51a.27.27,0,0,0-.52,0,5.92,5.92,0,0,1-3.37,3.56.35.35,0,0,0,0,.65,5.92,5.92,0,0,1,3.37,3.57.27.27,0,0,0,.52,0,5.93,5.93,0,0,1,3.34-3.56A.37.37,0,0,0,63.31,40.06Z"/><path class="cls-6" d="M30,51.81a5.93,5.93,0,0,1-3.34-3.55.27.27,0,0,0-.52,0,5.92,5.92,0,0,1-3.37,3.56.35.35,0,0,0,0,.65,5.92,5.92,0,0,1,3.37,3.57.27.27,0,0,0,.52,0A5.93,5.93,0,0,1,30,52.49.37.37,0,0,0,30,51.81Z"/><circle class="cls-7" cx="65.98" cy="47.11" r="1.72"/><path class="cls-7" d="M32.82,21.84V21A5.17,5.17,0,0,1,38,15.84h20.8A5.17,5.17,0,0,1,64,21v.82"/><path class="cls-8" d="M31.38,29.64H69.58a4.84,4.84,0,0,1,4.84,4.84V49.35"/></g></g></svg>