<?xml version="1.0" encoding="UTF-8"?>
<svg width="50px" height="50px" viewBox="0 0 50 50" version="1.1" xmlns="http://www.w3.org/2000/svg" xmlns:xlink="http://www.w3.org/1999/xlink">
    <!-- Generator: Sketch 43.2 (39069) - http://www.bohemiancoding.com/sketch -->
    <title>Icon/Service/Predictive Market Scenarios/50x50</title>
    <desc>Created with Sketch.</desc>
    <defs></defs>
    <g id="Page-1" stroke="none" stroke-width="1" fill="none" fill-rule="evenodd">
        <g id="Icon/Service/Predictive-Market-Scenarios/50x50">
            <g id="Group-2">
                <circle id="Oval-Copy-2" fill="#F8FAFA" cx="25" cy="25" r="25"></circle>
                <g id="Group" transform="translate(10.000000, 8.000000)" stroke="#047CC0" stroke-width="1.5">
                    <path d="M3.5,22.5 L13.4391276,18.6959418" id="Stroke-12-Copy-2" stroke-linecap="round" stroke-linejoin="round"></path>
                    <path d="M13.5,18.5 L19.5,2.5" id="Stroke-4-Copy-2" stroke-linecap="round" stroke-linejoin="round"></path>
                    <path d="M13.5,18.5 L28.5,27.5" id="Stroke-6-Copy-2" stroke-linecap="round" stroke-linejoin="round"></path>
                    <path d="M13.5,18.5 L29.5,13.5" id="Stroke-8-Copy-2" stroke-linecap="round" stroke-linejoin="round"></path>
                    <path d="M4.38628373,24.6423469 C3.48150665,25.6838926 1.9034071,25.7933075 0.859757265,24.8864263 C-0.183892572,23.9816492 -0.291203341,22.4014455 0.613573735,21.3598998 C1.52045494,20.3183541 3.09855449,20.2068351 4.1401002,21.1137163 C5.1816459,22.0205975 5.29316494,23.6008012 4.38628373,24.6423469 Z" id="Fill-16-Copy-2" fill="#047CC0"></path>
                    <path d="M16.6248551,14.9824763 C18.291177,16.4312416 18.4684452,18.9597319 17.0180684,20.6260537 C15.5693031,22.2923756 13.0408128,22.4696439 11.3744909,21.019267 C9.70816908,19.5705017 9.53251233,17.0420114 10.9812776,15.3756895 C12.430043,13.7077562 14.9585333,13.5320994 16.6248551,14.9824763 Z" id="Stroke-22-Copy-2" fill="#FED500" stroke-linecap="round" stroke-linejoin="round"></path>
                    <path d="M21.1413295,0.614600766 C22.1828341,1.52144619 22.2922447,3.09948346 21.3853992,4.14098807 C20.4806579,5.18249267 18.9026206,5.2940073 17.8590119,4.38716188 C16.8175073,3.48031646 16.7080967,1.90017513 17.6128381,0.858670531 C18.5196835,-0.182834071 20.0998249,-0.292244655 21.1413295,0.614600766 Z" id="Stroke-26-Copy-7" fill="#FED500" stroke-linecap="round" stroke-linejoin="round"></path>
                    <path d="M31.1413295,11.3146015 C32.1828341,12.221447 32.2922447,13.7994842 31.3853992,14.8409888 C30.4806579,15.8824934 28.9026206,15.9940081 27.8590119,15.0871626 C26.8175073,14.1803172 26.7080967,12.6001759 27.6128381,11.5586713 C28.5196835,10.5171667 30.0998249,10.4077561 31.1413295,11.3146015 Z" id="Stroke-26-Copy-5" fill="#FED500" stroke-linecap="round" stroke-linejoin="round"></path>
                    <path d="M30.1413295,25.6146008 C31.1828341,26.5214462 31.2922447,28.0994835 30.3853992,29.1409881 C29.4806579,30.1824927 27.9026206,30.2940073 26.8590119,29.3871619 C25.8175073,28.4803165 25.7080967,26.9001751 26.6128381,25.8586705 C27.5196835,24.8171659 29.0998249,24.7077553 30.1413295,25.6146008 Z" id="Stroke-26-Copy-6" fill="#FED500" stroke-linecap="round" stroke-linejoin="round"></path>
                </g>
            </g>
        </g>
    </g>
</svg>