<svg xmlns="http://www.w3.org/2000/svg" viewBox="0 0 100 100"><defs><style>.cls-1{fill:#f6f9fa;}.cls-2{fill:#e3ecec;}.cls-2,.cls-5{fill-rule:evenodd;}.cls-3{fill:#fff;}.cls-10,.cls-3,.cls-4,.cls-6,.cls-7,.cls-8,.cls-9{stroke:#047cc0;stroke-linecap:round;stroke-linejoin:round;}.cls-3,.cls-6,.cls-8,.cls-9{stroke-width:1.5px;}.cls-4{fill:#fed500;}.cls-10,.cls-4,.cls-7{stroke-width:1.3px;}.cls-5,.cls-6{fill:#e1ebf7;}.cls-7,.cls-8,.cls-9{fill:none;}.cls-9{stroke-dasharray:2.13 2.13;}.cls-10{fill:#047cc0;}</style></defs><title>predictive_package</title><g id="Layer_2" data-name="Layer 2"><g id="Layer_1-2" data-name="Layer 1"><circle class="cls-1" cx="50" cy="50" r="50"/><path class="cls-2" d="M79.36,80.37c0,4.56-13.75,8.25-30.71,8.25S18,84.93,18,80.37"/><rect class="cls-3" x="18.47" y="36.47" width="43.97" height="43.97" rx="2.05" ry="2.05"/><path class="cls-4" d="M55.32,14.76a10,10,0,0,1-7.8-7.9,0,0,0,1,0-.07,0,9.94,9.94,0,0,1-7,8.77.17.17,0,0,0,0,.34,9.94,9.94,0,0,1,7.93,8,0,0,0,1,0,.06,0,10,10,0,0,1,6.85-8.78A.2.2,0,0,0,55.32,14.76Z"/><polyline class="cls-5" points="25.1 40.6 24.86 72.8 54.85 72.8"/><path class="cls-6" d="M63.33,36.47h14a2,2,0,0,1,2,2V78.39a2,2,0,0,1-2,2h-14"/><path class="cls-3" d="M58.82,33.65l-5.59-7a2,2,0,0,0-1.6-.77H15.87a2,2,0,0,0-1.54,3.4l3.81,4.35"/><path class="cls-6" d="M60,27.41H79.28a2,2,0,0,1,1.92,2.77l-1.68,4.48"/><line class="cls-7" x1="42.39" y1="58.22" x2="48.43" y2="47.75"/><line class="cls-7" x1="43.14" y1="59.52" x2="53.39" y2="66.13"/><line class="cls-7" x1="41.75" y1="59.2" x2="55.58" y2="56.3"/><line class="cls-8" x1="25.02" y1="61.37" x2="26.01" y2="61.26"/><line class="cls-9" x1="28.13" y1="61.03" x2="39.77" y2="59.74"/><line class="cls-8" x1="40.83" y1="59.63" x2="41.82" y2="59.52"/><circle class="cls-10" cx="24.84" cy="61.37" r="1.48" transform="translate(-37.77 39.84) rotate(-48.99)"/><circle class="cls-4" cx="41.82" cy="59.52" r="3.1" transform="translate(-30.53 52.02) rotate(-48.99)"/><circle class="cls-4" cx="48.33" cy="47.92" r="1.48" transform="translate(-19.55 52.94) rotate(-48.99)"/><circle class="cls-4" cx="55.78" cy="56.26" r="1.48" transform="translate(-23.27 61.43) rotate(-48.99)"/><circle class="cls-4" cx="54.49" cy="66.83" r="1.48" transform="translate(-31.7 64.1) rotate(-48.99)"/><path class="cls-4" d="M66.69,24.39a6.27,6.27,0,0,1-3.53-3.75.29.29,0,0,0-.55,0A6.26,6.26,0,0,1,59,24.41a.37.37,0,0,0,0,.69,6.26,6.26,0,0,1,3.57,3.78.29.29,0,0,0,.55,0,6.27,6.27,0,0,1,3.53-3.76A.39.39,0,0,0,66.69,24.39Z"/><path class="cls-4" d="M40.14,23.75A6.27,6.27,0,0,1,36.61,20a.29.29,0,0,0-.55,0,6.26,6.26,0,0,1-3.56,3.77.37.37,0,0,0,0,.69,6.26,6.26,0,0,1,3.57,3.78.29.29,0,0,0,.55,0,6.27,6.27,0,0,1,3.53-3.76A.39.39,0,0,0,40.14,23.75Z"/><circle class="cls-4" cx="61.86" cy="11.96" r="1.82"/></g></g></svg>