<svg xmlns="http://www.w3.org/2000/svg" viewBox="0 0 100 100"><defs><style>.cls-1{fill:#f6f9fa;}.cls-2{fill:#e3ecec;}.cls-11,.cls-3{fill:#fff;}.cls-3,.cls-5,.cls-6,.cls-8,.cls-9{stroke:#047cc0;stroke-linecap:round;stroke-linejoin:round;}.cls-3,.cls-8{stroke-width:1.5px;}.cls-4{fill:#e1ebf7;}.cls-5,.cls-8,.cls-9{fill:none;}.cls-5,.cls-6{stroke-width:1.3px;}.cls-10,.cls-6{fill:#047cc0;}.cls-7{fill:#fed500;}</style></defs><title>price_and_analytics_under_stress</title><g id="Layer_2" data-name="Layer 2"><g id="Layer_1-2" data-name="Layer 1"><circle class="cls-1" cx="50" cy="50" r="50"/><path class="cls-2" d="M84.81,67.91,63.19,89.53a7,7,0,0,1-9.81-.36L21.22,57a7.53,7.53,0,0,1-2.17-4.39L16.45,31.24a6.5,6.5,0,0,1,1.8-5.42l2.7-2.7a6.5,6.5,0,0,1,5.37-1.81l21.55,2.47A7.53,7.53,0,0,1,52.31,26L84.44,58.09A7,7,0,0,1,84.81,67.91Z"/><path class="cls-3" d="M86.82,61.52,63.55,84.79a7.19,7.19,0,0,1-10.17,0L21.22,52.64a7.19,7.19,0,0,1-2.08-4.47L17.25,26.07a7.19,7.19,0,0,1,2.08-5.7l2.9-2.9a7.19,7.19,0,0,1,5.65-2.09l22.28,1.75a7.19,7.19,0,0,1,4.53,2.09L86.82,51.35A7.19,7.19,0,0,1,86.82,61.52Z"/><polyline class="cls-4" points="46.18 27.71 25.02 48.38 55.73 79.09"/><polyline class="cls-5" points="35.41 57.19 35.41 51.54 45.7 49.82 34.68 37.79 42.76 38.02 42.16 33.21"/><circle class="cls-6" cx="35.41" cy="51.54" r="1.45" transform="translate(-26.42 60.85) rotate(-64.07)"/><circle class="cls-6" cx="46.54" cy="50.33" r="1.45" transform="translate(-19.07 70.18) rotate(-64.07)"/><circle class="cls-6" cx="33.4" cy="37.33" r="1.45" transform="translate(-16.68 38.04) rotate(-48.99)"/><polyline class="cls-5" points="40.83 34.6 42.12 32.62 43.74 34.31"/><path class="cls-2" d="M27.88,29a2.9,2.9,0,0,1-2.94-3.23,3.17,3.17,0,1,0,5.78,1A2.8,2.8,0,0,1,27.88,29Z"/><path class="cls-4" d="M56,35.1,56.22,30s3.72,0,4.93,3.16a5.66,5.66,0,0,1-1.2,6Z"/><path class="cls-7" d="M56,35.1,56.22,30a8.09,8.09,0,0,0-3.22.81c-.66.33-1.79,2.36-1.79,2.36Z"/><circle class="cls-5" cx="56.19" cy="35.22" r="5.39"/><polyline class="cls-5" points="56.19 29.84 56.19 35.22 51.22 33.14 56.19 35.22 59.95 39.08"/><path class="cls-4" d="M66.69,46.78l3.7,4s1.42,0-1.73,1.18a5.66,5.66,0,0,1-6-1.2Z"/><path class="cls-7" d="M66.69,46.78l3.7,4a7.18,7.18,0,0,0,.61-7c-.3-.68-2.36-1.79-2.36-1.79Z"/><circle class="cls-5" cx="66.57" cy="47.01" r="5.39"/><polyline class="cls-5" points="70.39 50.8 66.57 47.01 68.65 42.04 66.57 47.01 62.71 50.77"/><circle class="cls-8" cx="27.63" cy="27.49" r="3.18" transform="translate(-11.35 27.59) rotate(-45)"/><path class="cls-5" d="M77.8,64.27l4.92-4.92a4,4,0,0,0,0-5.62l-3.86-3.86"/><line class="cls-8" x1="65.64" y1="18.7" x2="68.09" y2="21.15"/><line class="cls-8" x1="68.09" y1="18.7" x2="65.64" y2="21.15"/><line class="cls-8" x1="74.55" y1="20.24" x2="72.1" y2="22.69"/><line class="cls-8" x1="27.58" y1="79.32" x2="30.03" y2="81.77"/><line class="cls-8" x1="30.03" y1="79.32" x2="27.58" y2="81.77"/><line class="cls-8" x1="36.49" y1="80.86" x2="34.04" y2="83.31"/><rect class="cls-4" x="49.36" y="64.72" width="2.39" height="8.2" transform="translate(-33.85 55.9) rotate(-45)"/><rect class="cls-4" x="51.54" y="59.2" width="2.2" height="11.04" transform="translate(-30.35 56.18) rotate(-45)"/><rect class="cls-4" x="55.28" y="58.65" width="2.69" height="8.2" transform="translate(-27.78 58.42) rotate(-45)"/><rect class="cls-4" x="57.44" y="53.2" width="2.39" height="11.04" transform="translate(-24.35 58.66) rotate(-45)"/><rect class="cls-9" x="46.46" y="57.72" width="2.39" height="16.4" transform="translate(-32.65 53) rotate(-45)"/><rect class="cls-9" x="50.53" y="57.22" width="2.39" height="13.44" transform="translate(-30.06 55.3) rotate(-45)"/><rect class="cls-9" x="56.59" y="51.15" width="2.39" height="13.44" transform="translate(-24 57.81) rotate(-45)"/><rect class="cls-9" x="54.53" y="56.11" width="2.39" height="11.04" transform="translate(-27.26 57.46) rotate(-45)"/><polyline class="cls-5" points="66.57 62.3 52.7 76.17 38.1 61.58"/><path class="cls-10" d="M64.85,74.25a.75.75,0,0,1-.73-.91l4.43-20c-1.94,0-3.85,0-5.7-.1l-5.43-.16a.75.75,0,0,1-.63-1.11l2.55-4.58c2.35-4.23,4.8-8.29,7.28-12,1.29-1.93,2.63-3.91,4.07-5.82s2.94-3.88,4.47-5.62a.75.75,0,0,1,1.3.66L71.89,45.15c1.57,0,3.21,0,4.84.1l5.27.19a.75.75,0,0,1,.64,1.1L80.27,51c-2.26,4.24-4.49,8.09-6.81,11.77-1.11,1.74-2.41,3.75-3.82,5.7S66.91,72.2,65.42,74A.75.75,0,0,1,64.85,74.25Z"/><path class="cls-11" d="M75.72,24.38h0m0,0h0m0,0L71,45.89c1.92,0,3.83,0,5.75.1l5.27.19L79.6,50.64c-2.12,4-4.36,7.89-6.78,11.72C71.6,64.27,70.36,66.17,69,68s-2.69,3.7-4.18,5.48l4.63-20.93q-3.3,0-6.61-.1l-5.43-.16L60,47.73c2.27-4.08,4.67-8.08,7.25-12,1.31-1.95,2.62-3.9,4-5.78s2.85-3.77,4.44-5.58M64.85,73.5h0M75.72,22.88h-.08a1.5,1.5,0,0,0-1,.48l0,0c-1.54,1.76-3,3.61-4.52,5.68C68.62,31,67.28,33,66,34.9c-2.49,3.78-5,7.85-7.32,12.1l-2.55,4.58a1.5,1.5,0,0,0,1.27,2.23l5.43.16c1.56,0,3.16.08,4.79.09L63.38,73.18A1.5,1.5,0,0,0,66,74.47c1.51-1.8,2.94-3.68,4.26-5.59,1.27-1.75,2.45-3.55,3.83-5.71,2.33-3.69,4.57-7.56,6.84-11.83l2.37-4.46A1.5,1.5,0,0,0,82,44.68l-5.27-.19c-1.34,0-2.66-.07-3.94-.09l4.34-19.62a1.5,1.5,0,0,0-1.42-1.91Zm0,3h0Zm0,0h0Zm0,0h0Z"/></g></g></svg>